# Blender v2.92.0 OBJ File: 'pot.blend'
# www.blender.org
mtllib book.mtl
o book_Cube.001
v -0.461927 0.025576 0.578845
v -0.461927 0.025576 -0.578845
v -0.461927 0.260571 -0.578845
v 0.478761 0.025576 0.578845
v 0.478761 0.260571 0.578845
v 0.478761 0.025576 -0.578845
v 0.478761 0.260571 -0.578845
v -0.461927 0.260571 0.578845
v -0.512584 0.271691 0.637849
v -0.489376 0.304732 0.620630
v -0.518446 0.288211 0.646705
v -0.509951 0.300305 0.640402
v -0.503198 0.026464 -0.626169
v -0.489376 0.000000 -0.620630
v -0.513753 0.013232 -0.640865
v -0.508693 0.003546 -0.638837
v -0.489376 0.000000 0.620630
v -0.503198 0.026464 0.626169
v -0.508693 0.003546 0.638837
v -0.513753 0.013232 0.640865
v -0.489376 0.304732 -0.620630
v -0.512584 0.271691 -0.637849
v -0.509951 0.300305 -0.640402
v -0.518446 0.288211 -0.646705
v 0.491142 0.026422 -0.636237
v 0.537093 0.000000 -0.620630
v 0.514117 0.013211 -0.645899
v 0.530937 0.003540 -0.640186
v 0.537093 0.304732 -0.620630
v 0.493789 0.271948 -0.638087
v 0.531291 0.300340 -0.640434
v 0.515441 0.288340 -0.646824
v 0.537093 0.304732 0.620630
v 0.493789 0.271948 0.638087
v 0.531291 0.300340 0.640434
v 0.515441 0.288340 0.646824
v 0.491142 0.026422 0.636237
v 0.537093 0.000000 0.620630
v 0.514117 0.013211 0.645899
v 0.530937 0.003540 0.640186
vt 0.821090 0.000000
vt 0.900553 0.000000
vt 0.900553 0.396767
vt 0.821090 0.396767
vt 0.900553 0.000036
vt 0.980900 0.000000
vt 0.980900 0.322388
vt 0.900553 0.322425
vt 0.716652 0.878443
vt 0.717259 0.798983
vt 0.736932 0.798728
vt 0.736932 0.881607
vt 0.919654 0.438983
vt 1.000000 0.439019
vt 1.000000 0.761407
vt 0.919654 0.761371
vt 0.014131 0.855419
vt 0.336407 0.855419
vt 0.340657 0.875089
vt 0.000000 0.871638
vt 0.685540 0.459116
vt 0.363673 0.459116
vt 0.358754 0.438813
vt 0.703092 0.438895
vt 0.365434 0.006702
vt 0.716652 0.006702
vt 0.716652 0.432110
vt 0.365434 0.432110
vt 0.358754 0.432195
vt 0.007090 0.432195
vt 0.007090 0.006787
vt 0.358754 0.006787
vt 0.336407 0.458652
vt 0.014131 0.458652
vt 0.000000 0.442433
vt 0.340657 0.438983
vt 0.737539 0.881352
vt 0.736931 0.801892
vt 0.757211 0.798728
vt 0.757211 0.881607
vt 0.716652 0.006787
vt 0.821090 0.006787
vt 0.821090 0.432195
vt 0.716652 0.432195
vt 0.363673 0.855883
vt 0.685540 0.855883
vt 0.703092 0.876105
vt 0.358754 0.876187
vt 0.358754 0.438351
vt 0.358754 0.000462
vt 0.340657 0.877566
vt 0.340657 0.439678
vt 0.344215 0.438983
vt 0.344215 0.878261
vt 0.348100 0.444019
vt 0.348100 0.873224
vt 0.000000 0.438972
vt 0.000000 0.000011
vt 0.703092 0.879934
vt 0.703092 0.440973
vt 0.706707 0.438813
vt 0.706707 0.882094
vt 0.712620 0.441848
vt 0.712620 0.879059
vt 0.714476 0.000000
vt 0.818170 0.798649
vt 0.818153 0.442348
vt 0.821513 0.440617
vt 0.821612 0.792896
vt 0.825689 0.444200
vt 0.825901 0.784998
vt 0.356726 0.438983
vt 0.919654 0.441878
vt 0.919654 0.798728
vt 0.915702 0.793312
vt 0.915668 0.438983
vt 0.909891 0.785874
vt 0.909810 0.440974
vt 0.717864 0.000085
vt 0.819584 0.000000
vt 0.808390 0.451837
vt 0.724400 0.452713
vt 0.720111 0.444815
vt 0.814201 0.444399
vt 0.716669 0.439062
vt 0.818153 0.438983
vt 0.819584 0.438983
vt 0.717864 0.438898
vt 0.714476 0.438813
vt 0.716652 0.795363
vt 0.720012 0.797094
vt 0.724188 0.793511
vt 0.356726 0.000000
vt 0.818153 0.795833
vt 0.814167 0.798728
vt 0.808309 0.796737
vn -1.0000 0.0000 0.0000
vn 0.0000 0.0000 -1.0000
vn -0.9736 0.0045 0.2283
vn 0.0000 0.0000 1.0000
vn 0.0001 0.9999 0.0165
vn 0.0001 -0.9824 0.1869
vn 0.0000 -1.0000 0.0000
vn 0.0000 1.0000 0.0000
vn 0.0001 0.9999 -0.0165
vn -0.9736 0.0045 -0.2283
vn 1.0000 0.0000 0.0000
vn 0.0001 -0.9824 -0.1869
vn 0.0215 0.9998 0.0000
vn -0.1805 -0.9836 0.0000
vn -0.8864 -0.4630 0.0000
vn -0.7818 0.6236 0.0000
vn -0.2103 0.9776 0.0000
vn -0.8183 0.5748 0.0000
vn -0.9424 -0.3344 0.0000
vn -0.0001 -0.9829 -0.1843
vn -0.0029 -0.3741 -0.9274
vn -0.0055 0.6761 -0.7368
vn -0.0000 0.9761 -0.2175
vn -0.0001 0.4662 -0.8847
vn -0.0001 -0.4714 -0.8819
vn 0.9568 -0.0007 -0.2907
vn 0.3476 -0.0029 -0.9377
vn -0.3810 -0.0020 -0.9246
vn -0.3810 -0.0020 0.9246
vn 0.3476 -0.0029 0.9377
vn 0.9568 -0.0007 0.2907
vn -0.0001 -0.9829 0.1843
vn -0.0029 -0.3741 0.9274
vn -0.0055 0.6761 0.7368
vn -0.0000 0.9761 0.2175
vn -0.0001 0.4662 0.8847
vn -0.0001 -0.4714 0.8819
vn -0.2144 -0.9767 0.0000
usemtl Material.004
s off
f 1/1/1 8/2/1 3/3/1 2/4/1
f 2/5/2 3/6/2 7/7/2 6/8/2
f 5/9/3 4/10/3 37/11/3 34/12/3
f 4/13/4 5/14/4 8/15/4 1/16/4
f 2/17/5 6/18/5 25/19/5 13/20/5
f 8/21/6 5/22/6 34/23/6 9/24/6
f 14/25/7 26/26/7 38/27/7 17/28/7
f 29/29/8 21/30/8 10/31/8 33/32/8
f 4/33/9 1/34/9 18/35/9 37/36/9
f 6/37/10 7/38/10 30/39/10 25/40/10
f 26/41/11 29/42/11 33/43/11 38/44/11
f 7/45/12 3/46/12 22/47/12 30/48/12
f 1/34/13 2/17/13 13/20/13 18/35/13
f 14/25/14 17/28/14 19/49/14 16/50/14
f 16/51/15 19/52/15 20/53/15 15/54/15
f 15/54/16 20/53/16 18/55/16 13/56/16
f 10/31/17 21/30/17 23/57/17 12/58/17
f 12/59/18 23/60/18 24/61/18 11/62/18
f 11/62/19 24/61/19 22/63/19 9/64/19
f 26/26/20 14/25/20 16/50/20 28/65/20
f 28/66/21 16/67/21 15/68/21 27/69/21
f 27/69/22 15/68/22 13/70/22 25/71/22
f 21/30/23 29/29/23 31/72/23 23/57/23
f 23/73/24 31/74/24 32/75/24 24/76/24
f 24/76/25 32/75/25 30/77/25 22/78/25
f 29/42/26 26/41/26 28/79/26 31/80/26
f 31/74/27 28/66/27 27/69/27 32/75/27
f 32/75/28 27/69/28 25/71/28 30/77/28
f 34/81/29 37/82/29 39/83/29 36/84/29
f 36/84/30 39/83/30 40/85/30 35/86/30
f 35/87/31 40/88/31 38/44/31 33/43/31
f 17/28/32 38/27/32 40/89/32 19/49/32
f 19/90/33 40/85/33 39/83/33 20/91/33
f 20/91/34 39/83/34 37/82/34 18/92/34
f 33/32/35 10/31/35 12/58/35 35/93/35
f 35/86/36 12/94/36 11/95/36 36/84/36
f 36/84/37 11/95/37 9/96/37 34/81/37
f 3/46/38 8/21/38 9/24/38 22/47/38
